# xmcd CD database file
#
# Track frame offsets:
#	150
#	8858
#	18802
#	31228
#	44807
#	55577
#	68534
#	80198
#	92415
#	106291
#	115002
#	126939
#	142031
#	153819
#	167149
#
# Disc length: 2376 seconds
#
# Revision: 0
# Processed by: cddbd v1.5.2PL0 Copyright (c) Steve Scherf et al.
# Submitted via: CDex 1.51
#
DISCID=b909460f
DTITLE=Peter Douglas and Orchester Paul Kuhn - Just Swing
DYEAR=1900
DGENRE=Jazz
TTITLE0=I'm gonna sit right down and write myself a letter
TTITLE1=For once in my life
TTITLE2=Put your dreams away
TTITLE3=All or nothing at all
TTITLE4=Mrs. Robinson
TTITLE5=Love wonderful love
TTITLE6=Something supid
TTITLE7=I wish you love
TTITLE8=I've got you under my skin
TTITLE9=Chicago
TTITLE10=Bad bad Leroy Brown
TTITLE11=I get a kick out of you
TTITLE12=Strangers in the night
TTITLE13=Theme from New York
TTITLE14=Thank you Frank
EXTD=
EXTT0=
EXTT1=
EXTT2=
EXTT3=
EXTT4=
EXTT5=
EXTT6=
EXTT7=
EXTT8=
EXTT9=
EXTT10=
EXTT11=
EXTT12=
EXTT13=
EXTT14=
PLAYORDER=
